<?xml version="1.0" standalone="no"?>
<!DOCTYPE svg PUBLIC "-//W3C//DTD SVG 20010904//EN"
 "http://www.w3.org/TR/2001/REC-SVG-20010904/DTD/svg10.dtd">
<svg version="1.0" xmlns="http://www.w3.org/2000/svg"
 width="1024.000000pt" height="1024.000000pt" viewBox="0 0 1024.000000 1024.000000"
 preserveAspectRatio="xMidYMid meet">

<g transform="translate(0.000000,1024.000000) scale(0.100000,-0.100000)"
fill="#000000" stroke="none">
<path d="M0 5120 l0 -5120 5120 0 5120 0 0 5120 0 5120 -5120 0 -5120 0 0
-5120z m5548 3155 c122 -29 238 -106 300 -201 48 -71 91 -185 103 -270 28
-205 -100 -437 -293 -529 -210 -100 -471 -50 -626 120 -150 164 -184 409 -85
615 33 69 150 186 218 220 119 58 258 74 383 45z m1780 -751 c71 -35 108 -80
122 -149 15 -70 8 -111 -28 -162 -15 -22 -200 -208 -412 -414 -212 -206 -470
-460 -575 -565 -104 -105 -206 -199 -225 -209 -20 -10 -66 -20 -106 -23 -93
-6 -133 12 -253 114 -228 194 -265 223 -278 212 -16 -13 -56 -117 -153 -398
-43 -124 -110 -314 -149 -424 -40 -109 -70 -204 -68 -210 5 -11 406 -253 776
-467 117 -68 232 -140 255 -160 89 -78 126 -204 92 -308 -19 -59 -119 -274
-315 -679 -76 -158 -173 -364 -216 -459 -81 -180 -115 -231 -190 -281 -59 -39
-120 -48 -188 -28 -115 33 -181 119 -181 236 0 48 11 77 78 220 43 91 127 269
186 395 59 127 144 306 189 398 45 93 81 171 81 175 0 10 -91 62 -395 224
-148 80 -327 177 -397 216 -90 49 -130 67 -136 58 -5 -6 -71 -195 -147 -421
l-138 -410 -153 -160 c-265 -277 -629 -643 -916 -919 -303 -291 -337 -316
-435 -316 -29 0 -65 5 -80 12 -114 49 -169 132 -161 242 3 34 13 77 23 96 10
19 192 213 405 430 616 629 826 855 864 928 8 15 88 257 180 537 91 281 186
571 211 645 142 421 325 982 325 999 0 27 -21 30 -187 24 l-148 -5 -474 -474
c-260 -261 -487 -482 -503 -490 -147 -76 -332 56 -316 226 3 32 15 63 32 87
14 21 264 277 554 570 473 478 531 533 570 543 30 8 225 10 625 8 576 -3 582
-3 622 -25 41 -22 184 -164 365 -361 l103 -113 306 303 c611 606 713 702 770
731 70 34 122 35 189 1z"/>
</g>
</svg>
