<svg version="1.1" id="Layer_1" xmlns="http://www.w3.org/2000/svg" xmlns:xlink="http://www.w3.org/1999/xlink" x="0px" y="0px"
	 width="100%" viewBox="0 0 1024 1024" enable-background="new 0 0 1024 1024" xml:space="preserve">
<path fill="#000000" opacity="1.000000" stroke="none" 
	d="
M524.633850,400.358337 
	C524.066528,402.476013 523.633606,404.227112 523.159424,406.145233 
	C525.530823,407.565887 527.878723,406.610992 530.089539,406.621002 
	C547.087280,406.697937 564.106384,406.144012 581.078369,406.812714 
	C603.191406,407.683960 615.200562,427.876709 609.063171,447.011322 
	C598.035278,481.392914 587.494873,515.909546 577.685486,550.653076 
	C576.226379,555.821106 574.669250,560.864258 570.887756,564.914185 
	C563.927307,572.368774 553.042664,574.062683 543.981628,569.041443 
	C535.609985,564.402283 531.357544,553.889771 534.385010,543.962646 
	C542.488342,517.391846 550.846741,490.898987 559.043152,464.356415 
	C562.130432,454.359009 561.325745,453.191284 551.047791,453.175598 
	C534.716797,453.150665 518.385437,453.364563 502.054382,453.342712 
	C498.996796,453.338623 497.177612,454.437958 495.756226,457.154205 
	C487.415375,473.093323 478.498688,488.748016 470.657928,504.925964 
	C465.440155,515.691833 457.312042,523.968323 449.864868,532.873657 
	C428.810883,558.050171 407.578186,583.077087 386.485870,608.221619 
	C378.105804,618.211609 370.026154,621.378662 359.966034,618.158447 
	C344.804199,613.305237 342.367554,595.012024 349.990265,586.220642 
	C374.100220,558.414185 397.848083,530.284668 421.329956,501.930176 
	C430.795990,490.499847 435.250610,477.558380 439.304718,464.038788 
	C452.055481,421.517395 464.742645,378.976868 477.396423,336.426483 
	C478.614868,332.329315 479.429504,328.112091 480.407440,324.051086 
	C470.166046,319.748901 456.622498,322.230347 449.553680,329.334534 
	C425.223907,353.786133 400.837433,378.181488 376.568115,402.692902 
	C371.376648,407.936157 365.737457,411.050568 357.998138,410.521332 
	C347.315552,409.790863 339.679840,400.065277 342.186432,389.600983 
	C343.467133,384.254272 346.332458,379.881958 350.116302,375.964172 
	C377.669617,347.435425 405.920013,319.604797 434.160828,291.762299 
	C439.341583,286.654602 445.476776,283.832642 452.490845,283.918945 
	C481.314636,284.273590 510.119324,281.991943 538.927185,283.130127 
	C554.093262,283.729309 569.243225,283.361938 584.397644,283.636505 
	C591.378784,283.762970 597.152039,281.548279 602.275696,276.419647 
	C620.997803,257.679047 640.208557,239.424881 658.844116,220.600296 
	C665.498108,213.878815 675.636475,214.932968 682.088501,217.554016 
	C688.398682,220.117416 691.855835,227.076035 691.305725,234.918503 
	C691.002686,239.239471 689.323425,243.005966 686.107117,245.935852 
	C661.464417,268.384064 638.569580,292.645752 614.110596,315.281891 
	C609.814209,319.258118 604.745239,321.336945 598.702026,321.294983 
	C582.705017,321.183899 566.702820,321.517242 550.710266,321.238403 
	C545.819946,321.153107 544.259460,323.044098 543.169739,327.480560 
	C537.221375,351.696503 530.937012,375.829956 524.633850,400.358337 
z"/>
<path fill="#000000" opacity="1.000000" stroke="none" 
	d="
M200.645630,784.143677 
	C191.380264,755.015381 191.129868,726.571838 205.802185,699.575073 
	C217.735001,677.619019 237.066452,665.727539 261.898193,662.590515 
	C283.306213,659.885986 303.420471,663.217834 321.582306,675.208313 
	C334.777771,683.920044 343.054260,696.349304 346.980011,711.654358 
	C347.387939,713.244629 347.771790,714.889160 347.056274,717.290405 
	C337.321777,717.290405 327.387482,717.301880 317.453247,717.280090 
	C315.597656,717.276001 315.108307,715.930420 314.558716,714.404480 
	C308.638916,697.968384 295.934723,690.807861 279.427307,689.320740 
	C247.551010,686.449036 231.866333,709.798340 229.201019,732.204712 
	C227.832443,743.709961 228.016220,755.030945 230.228119,766.421204 
	C237.776947,805.293945 275.130096,810.687805 299.217834,797.137634 
	C309.895325,791.131226 316.769623,782.506104 317.946777,769.962463 
	C318.005554,769.336609 317.840912,768.689758 317.711517,767.330078 
	C309.173126,767.330078 300.728516,767.387939 292.285004,767.316528 
	C279.443787,767.207886 281.032043,769.125366 280.947937,755.838318 
	C280.858246,741.667725 280.896240,741.669861 295.120422,741.669617 
	C310.951965,741.669312 326.783478,741.657898 342.615021,741.663940 
	C349.328979,741.666504 349.344788,741.681152 349.346436,748.119568 
	C349.353027,773.450012 349.269562,798.780945 349.432159,824.110352 
	C349.457214,828.007874 348.491455,829.479004 344.415741,829.259888 
	C338.433899,828.938354 332.412842,828.984070 326.425568,829.253418 
	C322.436523,829.432800 321.102692,827.504883 320.779236,823.998230 
	C320.451721,820.447876 321.323914,816.707397 319.176971,812.984192 
	C298.957581,834.273132 273.987305,835.003296 248.279083,828.578918 
	C224.866150,822.728027 209.390686,806.983459 200.645630,784.143677 
z"/>
<path fill="#000000" opacity="1.000000" stroke="none" 
	d="
M734.819458,818.198303 
	C718.455566,801.993835 714.450745,782.030090 716.223572,760.499329 
	C717.564575,744.212830 723.823303,729.971741 736.073242,718.623169 
	C751.108948,704.694031 777.463867,701.396362 793.752319,711.588379 
	C796.832092,713.515381 799.481384,715.967773 802.236511,718.810730 
	C803.329041,715.836792 802.933105,713.348999 802.940125,710.915222 
	C802.979065,697.416016 802.930786,683.916504 802.983032,670.417358 
	C803.007629,664.062500 803.280762,663.859375 809.383789,663.864807 
	C816.383484,663.871094 823.384766,663.963257 830.382202,663.838745 
	C833.970276,663.775024 835.367615,665.113708 835.361511,668.832825 
	C835.276733,720.664124 835.278076,772.495728 835.354797,824.327087 
	C835.360291,828.030945 834.040649,829.320740 830.369812,829.220154 
	C823.209106,829.023865 816.037659,829.114197 808.872864,829.226196 
	C805.746460,829.275085 804.237122,828.294739 804.549866,824.865540 
	C804.830872,821.785034 804.609070,818.658691 804.609070,814.089050 
	C794.226440,826.922791 781.513550,831.672424 766.806946,831.215637 
	C754.762451,830.841553 744.022522,826.758240 734.819458,818.198303 
M778.342896,805.696228 
	C789.500854,805.309265 797.495728,799.703308 801.409668,789.009399 
	C805.700500,777.285828 805.890930,765.189148 803.155273,753.152893 
	C800.140869,739.890259 789.757019,731.028625 777.420593,731.529602 
	C764.917053,732.037292 753.902222,737.442871 750.153687,753.323853 
	C747.828735,763.173950 747.558838,773.080933 749.686707,782.966370 
	C752.915833,797.967773 762.279846,805.543091 778.342896,805.696228 
z"/>
<path fill="#000000" opacity="1.000000" stroke="none" 
	d="
M657.089478,755.961548 
	C667.089417,755.813599 667.089355,755.813599 666.780396,746.382385 
	C666.477600,737.141052 661.748413,732.339844 650.574951,729.929871 
	C637.934143,727.203430 627.963867,732.712158 624.209656,744.706848 
	C623.311829,747.575439 621.527832,748.049377 618.941589,748.042664 
	C611.453613,748.023254 603.998596,747.006470 596.483337,747.568665 
	C592.036072,747.901367 593.440674,744.417236 593.824951,742.278564 
	C596.478577,727.510010 603.989746,716.033875 618.321655,710.665161 
	C639.876160,702.590820 661.363586,702.440735 681.578735,714.888306 
	C693.762634,722.390625 699.170837,734.090149 699.261841,748.184143 
	C699.398376,769.333130 699.290527,790.483643 699.281189,811.633545 
	C699.279236,816.127441 699.150513,820.631226 700.696045,824.961121 
	C701.650269,827.634399 700.904846,829.186829 697.862915,829.189880 
	C690.202454,829.197571 682.541931,829.189209 674.881592,829.219421 
	C672.267151,829.229736 670.933899,828.055359 670.655762,825.395142 
	C670.312073,822.108704 669.731384,818.846985 669.244690,815.516846 
	C667.255493,815.097778 666.723328,816.861877 665.768311,817.819824 
	C649.090271,834.547119 620.746704,836.086060 602.297302,821.298340 
	C590.951172,812.204102 587.807739,800.165955 589.980164,786.439819 
	C592.225525,772.252502 601.086609,763.728821 614.519470,759.779541 
	C621.383728,757.761475 628.449280,756.701843 635.662720,756.637512 
	C642.649048,756.575317 649.632629,756.202820 657.089478,755.961548 
M666.642273,786.940186 
	C666.624084,783.201172 667.668579,779.429871 666.563110,775.687561 
	C657.697388,775.687561 649.082275,775.444763 640.490845,775.790405 
	C636.219788,775.962158 631.945984,777.058411 628.184753,779.424500 
	C622.434265,783.041992 620.551086,788.453186 621.386719,794.874939 
	C622.086670,800.253662 625.114319,804.394714 630.310852,805.832458 
	C644.726318,809.820923 663.213074,804.024780 666.642273,786.940186 
z"/>
<path fill="#000000" opacity="1.000000" stroke="none" 
	d="
M539.590942,778.489136 
	C539.633850,756.870239 539.759644,735.703918 539.579407,714.540161 
	C539.540894,710.012878 540.831482,708.358765 545.507996,708.544250 
	C553.952698,708.879272 562.420227,708.639099 570.839355,708.639099 
	C571.966064,711.422729 571.313904,713.934692 571.317383,716.371338 
	C571.368225,751.869324 571.250793,787.367981 571.464172,822.864746 
	C571.495117,828.011719 569.913452,829.583801 564.915100,829.294312 
	C558.437683,828.919189 551.919250,829.121155 545.422546,829.263977 
	C542.004944,829.339172 540.064880,828.497681 540.233521,824.527161 
	C540.357727,821.600342 539.731995,818.641724 539.339294,814.676086 
	C533.014282,823.330444 525.101196,828.120728 515.415833,829.822449 
	C503.827179,831.858582 492.408966,830.986755 481.721558,826.024597 
	C468.342773,819.812927 462.098694,808.182800 460.781952,794.156616 
	C458.239380,767.072083 460.234039,739.879700 459.686310,712.740173 
	C459.626007,709.750183 460.850189,708.581543 463.840942,708.623718 
	C471.505524,708.732056 479.177094,708.804138 486.837128,708.585266 
	C490.710724,708.474609 492.047546,709.734619 492.012451,713.735474 
	C491.832825,734.232544 491.877930,754.732300 491.955292,775.230652 
	C491.972198,779.714539 491.952637,784.291931 492.804199,788.659729 
	C494.540161,797.563782 499.970032,803.301819 509.209076,804.389893 
	C519.254639,805.572998 528.021790,803.010071 534.304199,794.380493 
	C537.671387,789.755249 538.565796,784.344727 539.590942,778.489136 
z"/>
<path fill="#000000" opacity="1.000000" stroke="none" 
	d="
M563.183594,223.657303 
	C561.805420,234.810104 557.906555,244.480927 550.509216,252.346024 
	C536.509583,267.230865 519.120300,270.936707 499.837646,266.029419 
	C480.499542,261.107971 469.935852,247.316071 465.793243,228.679810 
	C459.241394,199.205017 479.784943,168.419769 513.624451,168.843765 
	C534.728149,169.108185 560.348328,185.268311 562.483704,212.309326 
	C562.770325,215.939728 563.499207,219.533478 563.183594,223.657303 
z"/>
<path fill="#000000" opacity="1.000000" stroke="none" 
	d="
M372.631287,742.999878 
	C372.631226,731.389160 372.631226,720.278381 372.631226,708.329529 
	C382.134583,708.329529 391.244446,708.260010 400.352081,708.371460 
	C403.116852,708.405273 403.264282,710.755920 403.251343,712.773071 
	C403.224609,716.946106 403.590515,721.057922 404.729767,725.659424 
	C407.668121,721.746887 410.196106,717.947571 413.514008,714.765930 
	C422.041016,706.589233 432.297058,704.620117 443.544678,705.940369 
	C447.035797,706.350098 448.743134,707.783813 447.972961,711.915100 
	C446.727325,718.596741 445.948517,725.393921 445.464355,732.177429 
	C445.207489,735.776550 443.848572,736.716187 440.494507,736.416504 
	C435.160217,735.939880 429.840759,736.346008 424.709717,738.035583 
	C412.266388,742.132874 404.564514,753.444153 404.340820,768.731689 
	C404.075195,786.882507 404.070740,805.040100 404.241882,823.192017 
	C404.284302,827.690796 403.097137,829.519958 398.344910,829.294067 
	C391.199280,828.954468 384.024292,829.132263 376.864197,829.245422 
	C373.757355,829.294495 372.490021,828.386597 372.509613,824.943542 
	C372.664124,797.796326 372.616669,770.647949 372.631287,742.999878 
z"/>
</svg>