<svg version="1.1" id="Layer_1" xmlns="http://www.w3.org/2000/svg" xmlns:xlink="http://www.w3.org/1999/xlink" x="0px" y="0px"
	 width="100%" viewBox="0 0 1024 1024" enable-background="new 0 0 1024 1024" xml:space="preserve">
<path fill="#000000" opacity="1.000000" stroke="none" 
	d="
M410.072052,413.068542 
	C392.733185,430.864807 375.036652,447.800354 358.421814,465.822510 
	C349.838409,475.132935 335.142944,474.447357 326.104095,465.562775 
	C319.171448,458.748444 316.279694,443.481689 325.736603,434.054352 
	C359.130096,400.765320 392.296356,367.242462 425.128204,333.400269 
	C432.756958,325.536774 441.957367,325.055206 451.283173,325.035217 
	C484.272339,324.964508 517.264038,325.364563 550.251526,325.821625 
	C557.054871,325.915863 563.072021,328.458221 568.204590,333.391052 
	C579.398010,344.148865 589.458618,355.941284 599.995850,367.298035 
	C601.128967,368.519257 602.392456,369.639526 603.392456,370.960358 
	C606.210144,374.682251 608.601013,374.280090 611.797729,371.048035 
	C628.436707,354.225342 645.062805,337.380310 662.089722,320.953949 
	C676.359863,307.187164 690.604858,293.403473 704.655518,279.411804 
	C709.491882,274.595703 715.061829,270.325958 722.254456,269.711121 
	C731.333801,268.934998 741.788818,274.314178 744.706848,281.768433 
	C749.039551,292.836670 748.879822,299.891785 740.474976,308.344147 
	C728.495056,320.391876 716.273132,332.202698 704.013794,343.968018 
	C679.846375,367.161560 655.648865,390.330658 632.743042,414.780945 
	C625.191528,422.841583 616.481201,426.492371 605.557800,425.397247 
	C599.779175,424.817932 595.162964,421.946106 590.930176,418.409546 
	C582.108032,411.038574 573.515808,403.392487 564.697083,396.017334 
	C559.209900,391.428375 558.153870,391.623413 555.739380,398.336365 
	C544.700684,429.027313 533.886841,459.799103 522.859741,490.494324 
	C521.243896,494.992157 523.679443,496.927094 526.886230,498.825317 
	C548.530762,511.637573 570.154175,524.485596 591.809021,537.280334 
	C600.270996,542.280151 608.783264,547.195251 617.296082,552.108276 
	C633.005493,561.174683 640.607483,576.930054 631.671997,595.920227 
	C622.524902,615.360168 613.808594,635.018860 604.096069,654.172302 
	C593.917297,674.245239 584.957520,694.851929 575.548279,715.266113 
	C571.212280,724.673462 564.616760,732.218811 554.109619,734.615356 
	C544.648132,736.773376 535.879761,733.931580 529.799194,726.500732 
	C523.727112,719.080139 521.436218,710.260864 525.858154,700.814880 
	C537.793335,675.319275 549.686401,649.803955 561.661560,624.327209 
	C565.911133,615.286438 570.105408,606.204346 574.800903,597.394897 
	C577.271851,592.758972 576.302246,590.104980 571.939392,587.758972 
	C555.068298,578.687134 538.248108,569.520325 521.427673,560.354492 
	C511.628143,555.014404 501.874908,549.589294 492.080139,544.240295 
	C486.613831,541.255188 485.462860,541.634705 483.413208,547.591797 
	C475.400757,570.879395 467.322021,594.146484 459.633667,617.541443 
	C457.902344,622.809631 455.195038,626.961426 451.454132,630.918335 
	C428.328094,655.379639 404.839996,679.488770 380.859924,703.106323 
	C363.413727,720.288696 345.224823,736.711487 328.135345,754.267212 
	C325.215942,757.266174 321.962250,759.788025 318.124390,761.618408 
	C306.183044,767.313477 292.785553,764.370300 285.604126,754.326904 
	C278.776703,744.778809 280.316315,729.677246 289.340210,720.854553 
	C324.371429,686.604370 358.362549,651.342773 391.885651,615.625854 
	C396.897675,610.285828 401.629852,604.678833 406.394073,599.111938 
	C409.898865,595.016663 412.235992,590.294250 413.924652,585.144897 
	C432.117950,529.667419 450.395691,474.217712 468.636414,418.755829 
	C472.898010,405.798309 477.183563,392.847748 481.306244,379.845856 
	C483.188141,373.910736 482.324097,372.956116 475.968964,373.036682 
	C469.305084,373.121155 462.638519,373.409821 455.979218,373.285400 
	C451.817749,373.207672 448.644684,374.688477 445.769257,377.570007 
	C434.000092,389.364380 422.142426,401.070435 410.072052,413.068542 
z"/>
<path fill="#000000" opacity="1.000000" stroke="none" 
	d="
M508.922485,206.863281 
	C533.814453,188.317825 568.689941,192.458145 585.740784,216.500000 
	C610.080750,250.819702 592.481018,289.147583 563.332153,299.741943 
	C532.536926,310.934723 496.124512,295.680176 489.990082,256.651123 
	C486.949066,237.303482 492.947235,220.039764 508.922485,206.863281 
z"/>
</svg>